<?xml version="1.0" encoding="UTF-8"?>
<svg xmlns="http://www.w3.org/2000/svg" viewBox="0 0 88.24 72.32">
  <defs>
    <style>
      .cls-1 {
      fill: black;
      stroke-width: 0px;
      }
    </style>
  </defs>
  <rect class="cls-1" x="44.18" y="29.22" width="42.93" height="17.18" />
  <polygon class="cls-1"
    points="1.86 46.01 24.49 46.01 41.23 29.26 11.97 0 .66 11.31 18.61 29.26 1.86 46.01" />
  <g>
    <path class="cls-1" d="m11.65,51.7v2.94h-6.62v3.51h5.73v2.94h-5.73v6.07H1.99v-15.46h9.66Z" />
    <path class="cls-1" d="m17.98,51.7v12.52h7.27v2.94h-10.31v-15.46h3.04Z" />
    <path class="cls-1"
      d="m39.27,51.7v2.94h-7.5v3.3h6.64v2.94h-6.64v3.34h7.79v2.94h-10.84v-15.46h10.54Z" />
    <path class="cls-1"
      d="m43.05,51.7h4.62c1.97,0,3.6.38,4.87,1.14,1.27.76,2.2,1.75,2.78,2.96.58,1.21.87,2.51.87,3.9,0,1.48-.35,2.79-1.05,3.93-.7,1.13-1.64,2-2.82,2.61-1.18.61-2.48.91-3.9.91h-5.38v-15.46Zm4.85,12.52c1.58,0,2.83-.41,3.76-1.22.92-.81,1.39-1.98,1.39-3.51,0-1.23-.26-2.21-.77-2.94-.51-.73-1.11-1.23-1.79-1.51-.68-.28-1.32-.42-1.92-.42h-2.48v9.6h1.81Z" />
    <path class="cls-1"
      d="m70.84,66.39c-.61.27-1.28.5-2.02.67-.73.18-1.4.26-2,.26-1.64,0-3.08-.32-4.32-.96-1.24-.64-2.19-1.52-2.87-2.65-.67-1.13-1.01-2.41-1.01-3.85,0-1.81.36-3.33,1.07-4.59s1.67-2.19,2.88-2.81,2.53-.93,3.99-.93c.94,0,1.82.11,2.65.32s1.55.48,2.18.82l-.99,2.84c-.41-.22-.96-.43-1.67-.62-.71-.19-1.3-.28-1.77-.28-1.68,0-2.96.42-3.85,1.26-.89.84-1.33,2.09-1.33,3.74,0,.95.22,1.78.65,2.49.43.71,1.04,1.25,1.82,1.63.78.38,1.66.57,2.66.57s1.66-.13,2.12-.4v-1.87h-2.67v-2.94h5.75v6.53c-.24.25-.66.51-1.27.79Z" />
    <path class="cls-1"
      d="m86.46,51.7v2.94h-7.5v3.3h6.64v2.94h-6.64v3.34h7.79v2.94h-10.84v-15.46h10.54Z" />
  </g>
</svg>